<svg width="36" height="36" viewBox="0 0 36 36" fill="none" xmlns="http://www.w3.org/2000/svg">
<path fill-rule="evenodd" clip-rule="evenodd" d="M14.9585 7.68987L12.1146 9.37974L12.0541 14.5182L11.9935 19.6567L11.1326 20.0964L10.2716 20.536L10.3075 21.5918C10.3273 22.1724 10.3607 22.8553 10.3817 23.1093L10.42 23.571L11.6002 24.2707C12.2492 24.6556 12.8146 24.9709 12.8565 24.9715C12.8983 24.9722 13.2523 24.7679 13.6432 24.5176C14.0341 24.2673 14.4169 24.0282 14.4939 23.9863C14.6191 23.9181 14.6981 23.9473 15.2385 24.2607C15.6243 24.4845 15.8802 24.597 15.9458 24.5716C16.0022 24.5497 16.3574 24.3482 16.735 24.1239C17.2198 23.836 17.3977 23.7006 17.3402 23.6632C17.2955 23.634 16.8468 23.3668 16.3431 23.0693L15.4273 22.5284L15.3842 21.5527L15.341 20.577L14.528 20.1C14.0809 19.8377 13.7021 19.6016 13.6863 19.5753C13.6704 19.549 13.6755 17.4674 13.6978 14.9493L13.7381 10.3712L15.5247 9.31711C16.5072 8.73739 17.4628 8.17615 17.6482 8.06994L17.9851 7.8768L20.0429 9.09843L22.1006 10.3201L22.1611 11.9885L22.2216 13.6568L22.9961 14.114C23.422 14.3655 23.7849 14.5565 23.8025 14.5384C23.8488 14.491 23.7039 9.44924 23.6548 9.39896C23.5734 9.31563 17.925 6 17.8644 6C17.8303 6 16.5226 6.76046 14.9585 7.68987ZM16.6537 10.7019L15.4433 11.4264L15.4663 12.4882L15.4893 13.5499L14.877 13.9136L14.2646 14.2773L14.2639 15.1963L14.2631 16.1155L14.6111 15.9127C14.8025 15.8012 15.2546 15.5346 15.6158 15.3202L16.2725 14.9304L17.0924 15.394L17.9123 15.8577L18.7602 15.3601L19.6081 14.8626L23.487 17.1806L27.3659 19.4987L27.3817 22.0055L27.3975 24.5123L25.3583 25.719C24.2367 26.3827 23.2975 26.9348 23.2711 26.9459C23.2447 26.957 22.5791 26.6148 21.792 26.1856L20.3609 25.4052L19.6103 25.8484C19.1974 26.0922 18.8468 26.3128 18.8313 26.3386C18.8062 26.3802 23.1135 28.8172 23.2111 28.8165C23.2328 28.8164 24.5441 28.0514 26.1252 27.1166L29 25.4169V21.9636V18.5102L24.8501 16.0517C22.5677 14.6995 20.634 13.5488 20.5531 13.4944L20.406 13.3957L20.456 12.3894C20.4836 11.836 20.4973 11.3765 20.4863 11.3682C20.4302 11.3261 17.8971 9.96882 17.882 9.97279C17.8721 9.97533 17.3194 10.3034 16.6537 10.7019ZM18.4404 12.0149L18.9232 12.2636L18.9197 12.6504C18.9126 13.4472 18.8878 13.4985 18.3635 13.8016L17.8963 14.0716L17.4566 13.8294L17.0168 13.5873L17.0008 12.9403L16.9848 12.2932L17.4245 12.0329C17.6663 11.8898 17.8851 11.7712 17.9108 11.7694C17.9365 11.7676 18.1748 11.8781 18.4404 12.0149ZM9.13361 17.3361L7 18.6794L7.01537 22.1408L7.03081 25.6021L9.9167 27.301L12.8026 29L16.9621 26.5487C19.2498 25.2005 21.1983 24.0568 21.2921 24.0071C21.4589 23.9187 21.4802 23.9285 22.289 24.4679L23.1155 25.019L24.2724 24.2769C24.9086 23.8686 25.4785 23.4897 25.5386 23.4348C25.6391 23.3431 25.6465 23.2202 25.6294 21.9124L25.6108 20.4897L24.689 19.9876L23.7672 19.4855L23.7655 18.7414L23.7639 17.9974L23.0079 17.5505L22.2519 17.1037L22.2443 18.217C22.2401 18.8294 22.2334 19.3649 22.2292 19.407C22.225 19.4491 21.8615 19.7072 21.4213 19.9806L20.621 20.4775L20.6194 21.4804L20.6178 22.4834L16.7635 24.7356C14.6435 25.9742 12.8773 26.996 12.8385 27.006C12.7997 27.0161 11.8312 26.4694 10.6862 25.7912L8.60436 24.5581V22.086V19.6138L9.95095 18.7518L11.2975 17.8898V16.9361C11.2975 16.4115 11.2908 15.9847 11.2824 15.9876C11.2741 15.9905 10.3071 16.5973 9.13361 17.3361ZM24.067 21.9873L24.0665 22.5856L23.6567 22.8445C23.4313 22.987 23.2157 23.1125 23.1776 23.1235C23.1394 23.1345 22.8883 23.0043 22.6195 22.834L22.1308 22.5244L22.1318 21.935L22.1327 21.3455L22.5684 21.086L23.004 20.8264L23.5358 21.1077L24.0675 21.3891L24.067 21.9873ZM13.38 21.206C13.8082 21.4591 13.8272 21.4803 13.8629 21.7417C13.8833 21.8914 13.9 22.1312 13.9 22.2746V22.5354L13.3739 22.8647L12.8479 23.194L12.5417 23.0293C12.3734 22.9387 12.1471 22.8092 12.0389 22.7415L11.8422 22.6184V22.0422V21.4661L12.3415 21.2079C12.6161 21.066 12.8619 20.9482 12.8876 20.9462C12.9133 20.9442 13.1349 21.0611 13.38 21.206Z" fill="white"/>
</svg>
