<svg width="24" height="24" viewBox="0 0 24 24" fill="none" xmlns="http://www.w3.org/2000/svg">
<path d="M10.6001 0.0568305C7.18066 0.443778 4.00611 2.35461 2.06927 5.19188C1.10038 6.61127 0.519 7.99192 0.137484 9.77958C0.0186619 10.3363 0.00256269 10.5896 0.000159818 11.9416C-0.00206284 13.1914 0.0181213 13.5835 0.109731 14.0737C0.412853 15.6955 1.18466 17.653 1.76315 18.2676C2.20245 18.7342 2.54835 18.8159 3.59414 18.7C4.451 18.6051 4.69639 18.5006 4.85691 18.1625C4.94197 17.9833 4.95338 17.5595 4.95338 14.5882C4.95338 10.9252 4.94792 10.9886 5.29141 10.671C5.54377 10.4377 5.84257 10.3808 6.81561 10.3808C7.78361 10.3808 8.04438 10.4299 8.32371 10.6649C8.68342 10.9675 8.67783 10.9068 8.67783 14.5222C8.67783 16.34 8.69868 17.8272 8.72421 17.8272C8.85571 17.8272 9.59207 17.5922 9.71708 17.5103C10.0667 17.2812 10.0595 17.38 10.0595 12.8311V8.66396L10.1946 8.39622C10.2837 8.21984 10.4117 8.08267 10.5701 7.99414C10.7948 7.86844 10.8827 7.85974 11.9217 7.85974C12.9611 7.85974 13.0484 7.86844 13.27 7.9939C13.4003 8.06771 13.5625 8.22266 13.6304 8.33827C13.7507 8.54288 13.7547 8.64991 13.7839 12.4004L13.814 16.2523L14.2645 16.0752C14.5297 15.9709 14.8016 15.8126 14.9253 15.6905L15.1356 15.4831L15.1656 10.7198L15.1956 5.95653L15.3639 5.73594C15.6552 5.35416 15.8019 5.3096 16.8476 5.28521C17.9694 5.25897 18.3134 5.32017 18.5763 5.59276C18.6787 5.69888 18.7912 5.86188 18.8263 5.95485C18.8687 6.06745 18.89 7.36733 18.89 9.84564C18.89 13.3719 18.8956 13.5644 18.9952 13.5103C19.3573 13.3133 20.8656 12.0192 21.6568 11.2265C23.1002 9.7803 23.3918 9.34338 23.3941 8.62258C23.3952 8.28698 23.3531 8.10927 23.1521 7.60161C22.5146 5.99136 21.583 4.60176 20.3231 3.38171C19.3162 2.40668 18.5041 1.83722 17.2381 1.21839C15.9596 0.5935 14.6292 0.201147 13.2907 0.0543081C12.6212 -0.0191416 11.2605 -0.0178804 10.6001 0.0568305ZM23.688 11.5963C23.1708 12.3651 21.943 13.7548 21.0841 14.5434C18.9951 16.4618 16.768 17.8993 13.9041 19.178C11.5314 20.2374 8.23961 21.1905 5.43396 21.6302L4.92335 21.7103L5.49403 22.0853C7.18084 23.1935 9.35064 23.8839 11.4721 23.9873C12.7171 24.0479 14.0073 23.8916 15.2855 23.5254C19.7401 22.2487 23.0143 18.5881 23.8472 13.9535C23.943 13.4204 24.0474 11.2209 23.9769 11.2209C23.9569 11.2209 23.8269 11.3899 23.688 11.5963Z" fill="white"/>
</svg>
