<svg width="23" height="21" viewBox="0 0 23 21" fill="none" xmlns="http://www.w3.org/2000/svg">
<path d="M0.723337 12.2493L4.90239 14.1158L16.9456 7.41189L9.68192 16.0589L20.0932 20.8962C20.2713 20.9758 20.4655 21.0105 20.6595 20.9973C20.8534 20.9841 21.0414 20.9234 21.2075 20.8204C21.3737 20.7174 21.513 20.5751 21.6139 20.4056C21.7147 20.236 21.7741 20.0442 21.7869 19.8462L22.9975 1.317C23.011 1.10254 22.9695 0.888187 22.8772 0.695041C22.7848 0.501894 22.6448 0.33661 22.4708 0.215453C22.2969 0.0942953 22.095 0.0214402 21.8851 0.00405646C21.6752 -0.0133273 21.4644 0.0253594 21.2736 0.11631L0.693072 9.99857C0.483138 10.1002 0.306228 10.2612 0.183383 10.4625C0.0605374 10.6637 -0.0030738 10.8968 0.000114214 11.1338C0.00330222 11.3709 0.0731551 11.6021 0.201366 11.7998C0.329576 11.9975 0.510749 12.1535 0.723337 12.2493Z" fill="white"/>
</svg>
