<svg width="36" height="36" viewBox="0 0 36 36" fill="none" xmlns="http://www.w3.org/2000/svg">
<path d="M29.706 11.1895C28.871 11.5595 27.974 11.8095 27.031 11.9225C28.004 11.3403 28.7319 10.424 29.079 9.34452C28.1648 9.88751 27.1643 10.2697 26.121 10.4745C25.4194 9.72538 24.4901 9.22884 23.4773 9.06199C22.4646 8.89514 21.4251 9.06731 20.5202 9.55177C19.6154 10.0362 18.8958 10.8059 18.4732 11.7412C18.0505 12.6766 17.9485 13.7253 18.183 14.7245C16.3307 14.6315 14.5186 14.1501 12.8644 13.3114C11.2102 12.4728 9.75084 11.2957 8.581 9.85652C8.181 10.5465 7.951 11.3465 7.951 12.1985C7.95055 12.9655 8.13943 13.7208 8.50088 14.3973C8.86232 15.0737 9.38516 15.6506 10.023 16.0765C9.28328 16.053 8.55987 15.8531 7.913 15.4935V15.5535C7.91293 16.6293 8.28503 17.6719 8.96618 18.5045C9.64733 19.3371 10.5956 19.9084 11.65 20.1215C10.9638 20.3072 10.2443 20.3346 9.546 20.2015C9.8435 21.1271 10.423 21.9365 11.2034 22.5164C11.9837 23.0963 12.9259 23.4177 13.898 23.4355C12.2478 24.7309 10.2099 25.4336 8.112 25.4305C7.74038 25.4306 7.36908 25.4089 7 25.3655C9.12948 26.7347 11.6083 27.4613 14.14 27.4585C22.71 27.4585 27.395 20.3605 27.395 14.2045C27.395 14.0045 27.39 13.8025 27.381 13.6025C28.2923 12.9435 29.0789 12.1274 29.704 11.1925L29.706 11.1895Z" fill="white"/>
</svg>
